<?xml version="1.0" encoding="utf-8"?>
<!-- Generator: Adobe Illustrator 18.1.0, SVG Export Plug-In . SVG Version: 6.00 Build 0)  -->
<svg version="1.1" id="Слой_1" xmlns="http://www.w3.org/2000/svg" xmlns:xlink="http://www.w3.org/1999/xlink" x="0px" y="0px"
	 viewBox="0 0 30 30" enable-background="new 0 0 30 30" xml:space="preserve">
<image display="none" overflow="visible" width="27" height="27" xlink:href="fb.png"  transform="matrix(1.1111 0 0 1.1111 0 0)">
</image>
<circle fill="none" stroke="#97999C" stroke-miterlimit="10" cx="15" cy="15" r="14.5"/>
<g id="facebook_1_">
	<path fill="#96989B" d="M13.7,5.1c-0.8,0.4-1.4,1-1.7,1.7c-0.3,0.7-0.4,1.6-0.4,2.9v0.4H9.5v4.2h2.1v11.2h5V14.4h2.8v-4.2h-2.8V9.8
		c0-0.8,0.2-1,0.2-1c0.1-0.1,0.4-0.2,0.7-0.2c0.5,0,1,0.1,1.6,0.2l0.6,0.2l0.7-3.8l-0.5-0.2C17.8,4.3,15.3,4.2,13.7,5.1z M18.7,7.4
		c-1.2-0.2-2.3-0.1-2.9,0.5c-0.4,0.4-0.5,1-0.5,1.9v1.6h2.8v1.7h-2.8v11.2h-2.5V13.1h-2.1v-1.7h2.1V9.7c0-1.1,0.1-1.9,0.3-2.4
		c0.2-0.5,0.6-0.8,1.1-1.1c1.1-0.6,3-0.6,4.7-0.2L18.7,7.4z"/>
</g>
</svg>
