<?xml version="1.0" encoding="utf-8"?>
<!-- Generator: Adobe Illustrator 18.1.0, SVG Export Plug-In . SVG Version: 6.00 Build 0)  -->
<svg version="1.1" xmlns="http://www.w3.org/2000/svg" xmlns:xlink="http://www.w3.org/1999/xlink" x="0px" y="0px"
	 viewBox="0 0 39.7 39.7" enable-background="new 0 0 39.7 39.7" xml:space="preserve">
<g id="Слой_1">
	<g id="Слой_1_1_">
		<circle fill="#BCBDC0" cx="19.8" cy="19.8" r="19.8"/>
	</g>
	<g id="Слой_2" display="none">
		<g display="inline">
			<path fill="#FFFFFF" d="M11.4,33.1c0.3,0.1,0.7,0.1,1-0.1L23,22.3c2.8,0.9,6,0.2,8.1-1.9c3.1-3.1,3.1-8.1,0-11.2s-8.1-3.1-11.2,0
				c-2.1,2.1-2.8,5.3-1.9,8.1l-1.8,1.8c-0.1,0.1-0.1,0.2-0.2,0.3L15.5,21L14,21.5c-0.2,0-0.4,0.2-0.5,0.5L13,23.5L11.5,24
				c-0.2,0-0.4,0.2-0.5,0.5L10.5,26L9,26.5c-0.1,0-0.2,0.1-0.3,0.2l-0.6,0.6c-0.2,0.2-0.3,0.5-0.2,0.8l0.6,3.1
				c0,0.2,0.2,0.4,0.4,0.6L11.4,33.1z M9.6,28.2L9.8,28l1.6-0.5c0.2,0,0.4-0.2,0.5-0.5l0.5-1.4l1.4-0.5c0.2,0,0.4-0.2,0.5-0.5L15,23
				l1.4-0.5c0.2,0,0.4-0.2,0.5-0.5l0.5-1.6l2.1-2.1c0.2-0.2,0.3-0.6,0.1-0.9c-0.9-2.3-0.4-5,1.3-6.7c2.4-2.4,6.3-2.4,8.7,0
				s2.4,6.3,0,8.7c-1.7,1.7-4.4,2.2-6.7,1.2c-0.3-0.1-0.7,0-0.9,0.1L11.6,31.2l-0.8-0.4l8.5-8.5c0.1-0.1,0.1-0.4,0-0.6
				c-0.1-0.2-0.4-0.1-0.6,0L10,30.3L9.6,28.2z"/>
			<path fill="#FFFFFF" d="M28.9,14.5c0.4-0.4,0.6-0.9,0.6-1.5c0-0.6-0.2-1.1-0.6-1.5c-0.4-0.4-0.9-0.6-1.5-0.6
				c-0.6,0-1.1,0.2-1.5,0.6c-0.4,0.4-0.6,0.9-0.6,1.5c0,0.6,0.2,1.1,0.6,1.5c0.4,0.4,0.9,0.6,1.5,0.6C28,15.1,28.5,14.9,28.9,14.5z
				 M26,12.9c0-0.7,0.6-1.3,1.3-1.3c0.3,0,0.6,0.1,0.9,0.4c0.2,0.2,0.3,0.5,0.4,0.9c0,0.3-0.1,0.6-0.4,0.9c-0.2,0.2-0.5,0.3-0.9,0.4
				c-0.3,0-0.6-0.1-0.9-0.4C26.1,13.6,26.1,13.3,26,12.9z"/>
		</g>
	</g>
</g>
<g id="Слой_2_1_" display="none">
	<g display="inline">
		<g>
			<path fill="#FFFFFF" stroke="#FFFFFF" stroke-width="0.5" stroke-miterlimit="10" d="M24.6,22.8l-7.7-7.7c-1.1-1.1-1.1-2.8,0-3.9
				l5.4-5.4c1.1-1.1,2.8-1.1,3.9,0l7.7,7.7c1.1,1.1,1.1,2.8,0,3.9l-5.4,5.4C27.4,23.9,25.7,23.9,24.6,22.8z M25.4,6.5
				c-0.7-0.7-1.7-0.7-2.3,0L17.6,12c-0.7,0.7-0.7,1.7,0,2.3l7.7,7.7c0.7,0.7,1.7,0.7,2.3,0l5.4-5.4c0.7-0.7,0.7-1.7,0-2.3L25.4,6.5z
				"/>
		</g>
		<g>
			<path fill="#FFFFFF" stroke="#FFFFFF" stroke-width="0.25" stroke-miterlimit="10" d="M8.3,31.4L7.8,28l9.8-9.8l-0.8-0.8
				c-0.7-0.7-0.7-1.7,0-2.3l0.8,0.8c-0.2,0.2-0.2,0.5,0,0.8l1.5,1.5L8.9,28.4l0.3,2l2,0.3l1.5-1.5h2v-2.3h2.3v-2.3h2.3v-2l2.1-2.1
				l1.5,1.5c0.2,0.2,0.5,0.2,0.8,0l0.4-0.4l0.8,0.8l-0.4,0.4c-0.7,0.7-1.7,0.7-2.3,0L21.5,22l-1,1v2.6h-2.3V28h-2.3v2.3h-2.6
				l-1.6,1.6L8.3,31.4z"/>
		</g>
		<g>
			<path fill="#FFFFFF" stroke="#FFFFFF" stroke-miterlimit="10" d="M27.3,17.1l-4.7-4.7c-0.6-0.6-0.6-1.4,0-2c0.6-0.6,1.4-0.6,2,0
				l4.7,4.7c0.6,0.6,0.6,1.4,0,2C28.7,17.7,27.8,17.7,27.3,17.1z M23.9,11c-0.2-0.2-0.5-0.2-0.7,0c-0.2,0.2-0.2,0.5,0,0.7l4.7,4.7
				c0.2,0.2,0.5,0.2,0.7,0c0.2-0.2,0.2-0.5,0-0.7L23.9,11z"/>
		</g>
	</g>
</g>
<g id="Слой_3">
	<g>
		<g>
			<path fill="#FFFFFF" stroke="#FFFFFF" stroke-width="0.5" stroke-miterlimit="10" d="M25,24l-9.3-9.3c-1.3-1.3-1.5-3.1-0.5-4.1
				l5-5c1-1,2.8-0.8,4.1,0.5l9.3,9.3c1.3,1.3,1.5,3.1,0.5,4.1l-5,5C28.1,25.6,26.3,25.3,25,24z M23.5,6.8c-0.8-0.8-1.9-0.9-2.5-0.3
				l-5,5c-0.6,0.6-0.5,1.7,0.3,2.5l9.3,9.3c0.8,0.8,1.9,0.9,2.5,0.3l5-5c0.6-0.6,0.5-1.7-0.3-2.5L23.5,6.8z"/>
		</g>
		<g>
			<path fill="#FFFFFF" stroke="#FFFFFF" stroke-width="0.25" stroke-miterlimit="10" d="M8.8,30.9l-1-3.7l9.1-9.1L16,17.2
				c-0.8-0.8-0.9-1.9-0.3-2.5l0.9,0.9c-0.2,0.2-0.2,0.5,0.1,0.8l1.9,1.9l-9.5,9.5L9.7,30l2.2,0.6l1.4-1.4l2.1,0.3L15.1,27l2.5,0.3
				l-0.3-2.5l2.5,0.3l-0.3-2.1l1.9-1.9l1.9,1.9c0.3,0.3,0.6,0.3,0.8,0.1l0.4-0.4l0.9,0.9L25,24c-0.6,0.6-1.7,0.5-2.5-0.3l-0.9-0.9
				l-0.9,0.9l0.4,2.8l-2.5-0.3l0.3,2.5l-2.5-0.3l0.3,2.5l-2.8-0.4l-1.5,1.5L8.8,30.9z"/>
		</g>
		<g>
			<path fill="#FFFFFF" stroke="#FFFFFF" stroke-miterlimit="10" d="M27,18.3l-5.7-5.7c-0.7-0.7-0.8-1.6-0.3-2.1s1.5-0.4,2.1,0.3
				l5.7,5.7c0.7,0.7,0.8,1.6,0.3,2.1S27.7,19,27,18.3z M22.6,11.4c-0.2-0.2-0.5-0.3-0.7-0.1c-0.2,0.2-0.1,0.5,0.1,0.7l5.7,5.7
				c0.2,0.2,0.5,0.3,0.7,0.1c0.2-0.2,0.1-0.5-0.1-0.7L22.6,11.4z"/>
		</g>
	</g>
</g>
</svg>
