<?xml version="1.0" encoding="utf-8"?>
<!-- Generator: Adobe Illustrator 18.1.0, SVG Export Plug-In . SVG Version: 6.00 Build 0)  -->
<svg version="1.1" id="Слой_1" xmlns="http://www.w3.org/2000/svg" xmlns:xlink="http://www.w3.org/1999/xlink" x="0px" y="0px"
	 viewBox="0 0 382 85" enable-background="new 0 0 382 85" xml:space="preserve">
<g>
	<g>
		
			<linearGradient id="SVGID_1_" gradientUnits="userSpaceOnUse" x1="65.5603" y1="26.8883" x2="28.3347" y2="44.3472" gradientTransform="matrix(0.9991 4.160000e-002 -4.160000e-002 0.9991 -14.3048 -8.5087)">
			<stop  offset="0" style="stop-color:#005E96"/>
			<stop  offset="1" style="stop-color:#00AEEF"/>
		</linearGradient>
		<path fill="url(#SVGID_1_)" d="M0,32.1l8.4-8.5c0,0,0.9-0.8,1.4-1.2c8.9-6.4,26.4-9.9,42.1-5.4L18.5,50.7L0,32.1z"/>
		<path fill="#00AEEF" d="M8.3,23.6c0,0,1.4-0.5,3.3-1.1c1.3-0.4,2.9-0.8,4.6-1.2c3.2-0.7,7-1.4,11.3-1.7c2.5-0.2,5.4-0.2,7.8-0.1
			c1.7,0.1,3.5,0.2,5.4,0.5c3.7,0.5,7.6,1.3,11.6,2.5c1.3,0.4,2.6,0.8,3.9,1.3c1.7,0.6,3.4,1.3,5.1,2.1c2.2,1,4.4,2.2,6.7,3.5
			c3.1,1.9,6.2,4.1,9.1,6.6l18.2-18.2c0,0-1.2-1.3-3.7-3.7c-1.5-1.4-4.5-4-9.3-6.8c-1.5-0.9-3.2-1.7-5-2.6c-2.6-1.2-5.6-2.3-8.9-3.1
			c-2.8-0.7-5.7-1.2-8.9-1.5c-0.9-0.1-1.9-0.2-3-0.2c-2.7-0.1-6,0-9.7,0.5c-2.2,0.3-4.2,0.7-6.9,1.4c-1.6,0.4-3.2,0.9-4.9,1.6
			c-3.6,1.4-6.8,3-9.4,4.6c-2.8,1.7-4.9,3.4-6.4,4.6c-1.5,1.2-4.1,3.8-4.1,3.8L8.3,23.6z"/>
		
			<linearGradient id="SVGID_2_" gradientUnits="userSpaceOnUse" x1="422.183" y1="34.2475" x2="384.9587" y2="51.7057" gradientTransform="matrix(-0.9991 -4.160000e-002 4.160000e-002 -0.9991 500.3283 115.6982)">
			<stop  offset="0" style="stop-color:#005E96"/>
			<stop  offset="1" style="stop-color:#00AEEF"/>
		</linearGradient>
		<path fill="url(#SVGID_2_)" d="M130,52.9l-8.4,8.5c0,0-0.9,0.8-1.4,1.2c-8.9,6.4-26.4,9.9-42.1,5.4l33.4-33.8L130,52.9z"/>
		<path fill="#00AEEF" d="M121.7,61.4c0,0-1.4,0.5-3.3,1.1c-1.3,0.4-2.8,0.8-4.6,1.2c-3.2,0.7-7,1.4-11.3,1.7
			c-2.5,0.2-5.4,0.2-7.8,0.1c-1.7-0.1-3.5-0.2-5.4-0.5c-3.7-0.5-7.6-1.3-11.6-2.5c-1.3-0.4-2.6-0.8-3.9-1.3
			c-1.7-0.6-3.4-1.3-5.1-2.1c-2.2-1-4.5-2.2-6.7-3.5c-3.1-1.9-6.2-4.1-9.1-6.6L34.7,67.1c0,0,1.2,1.3,3.7,3.7
			c1.5,1.4,4.5,3.9,9.3,6.8c1.5,0.9,3.2,1.7,5,2.6c2.6,1.2,5.6,2.3,8.9,3.1c2.8,0.7,5.7,1.3,8.9,1.5c0.9,0.1,1.9,0.2,3,0.2
			c2.7,0.1,6,0,9.7-0.5c2.2-0.3,4.2-0.7,6.9-1.4c1.6-0.4,3.2-0.9,4.9-1.6c3.6-1.4,6.8-3,9.4-4.6c2.8-1.7,4.9-3.4,6.4-4.6
			c1.5-1.2,4.1-3.8,4.1-3.8L121.7,61.4z"/>
	</g>
	<g>
		<path fill="#0083C5" d="M192.3,60.5c0,0.5-0.1,0.9-0.3,1.3c-0.2,0.4-0.4,0.7-0.7,1c-0.3,0.3-0.6,0.5-1,0.6
			c-0.4,0.1-0.8,0.2-1.2,0.2h-3.6c-0.8,0-1.4-0.1-2-0.2c-0.6-0.2-1.1-0.4-1.5-0.8c-0.5-0.4-0.9-1-1.3-1.6c-0.4-0.7-0.9-1.6-1.5-2.7
			l-10.5-19.9c-0.6-1.2-1.2-2.5-1.8-3.8c-0.6-1.4-1.2-2.7-1.7-4h-0.1c0.1,1.6,0.2,3.1,0.2,4.7c0,1.6,0.1,3.2,0.1,4.8v22.2
			c0,0.2-0.1,0.4-0.2,0.6c-0.1,0.2-0.3,0.3-0.6,0.4c-0.3,0.1-0.7,0.2-1.2,0.3c-0.5,0.1-1.1,0.1-1.9,0.1c-0.8,0-1.4,0-1.9-0.1
			c-0.5-0.1-0.9-0.2-1.2-0.3c-0.3-0.1-0.5-0.3-0.6-0.4c-0.1-0.2-0.2-0.4-0.2-0.6V24.1c0-1,0.3-1.8,0.9-2.3c0.6-0.5,1.3-0.8,2.2-0.8
			h4.6c0.8,0,1.5,0.1,2.1,0.2c0.6,0.1,1.1,0.4,1.5,0.7c0.4,0.3,0.9,0.8,1.3,1.4c0.4,0.6,0.8,1.3,1.2,2.2l8.2,15.5
			c0.5,0.9,0.9,1.9,1.4,2.8c0.5,0.9,0.9,1.8,1.3,2.7c0.4,0.9,0.9,1.8,1.3,2.7c0.4,0.9,0.8,1.8,1.2,2.6h0c-0.1-1.5-0.1-3.1-0.1-4.8
			c0-1.7,0-3.2,0-4.8V22.3c0-0.2,0.1-0.4,0.2-0.6c0.1-0.2,0.3-0.3,0.7-0.5c0.3-0.1,0.7-0.2,1.2-0.3c0.5-0.1,1.1-0.1,1.9-0.1
			c0.7,0,1.4,0,1.9,0.1c0.5,0.1,0.9,0.1,1.2,0.3c0.3,0.1,0.5,0.3,0.6,0.5c0.1,0.2,0.2,0.4,0.2,0.6V60.5z"/>
		<path fill="#0083C5" d="M225.7,62.5c0,0.3-0.1,0.5-0.3,0.7c-0.2,0.2-0.6,0.3-1,0.4c-0.5,0.1-1.2,0.1-2.1,0.1c-1,0-1.7,0-2.1-0.1
			c-0.4-0.1-0.8-0.2-0.9-0.4c-0.2-0.2-0.3-0.4-0.3-0.7v-2.3c-1.2,1.3-2.6,2.3-4.1,3c-1.5,0.7-3.2,1.1-5.1,1.1
			c-1.5,0-2.9-0.2-4.2-0.6c-1.3-0.4-2.4-1-3.3-1.8c-0.9-0.8-1.7-1.8-2.2-3c-0.5-1.2-0.8-2.6-0.8-4.1c0-1.7,0.3-3.2,1-4.4
			c0.7-1.3,1.6-2.3,3-3.1c1.3-0.8,2.9-1.4,4.9-1.8c1.9-0.4,4.2-0.6,6.8-0.6h2.8V43c0-0.9-0.1-1.7-0.3-2.4c-0.2-0.7-0.5-1.3-0.9-1.7
			c-0.4-0.5-1-0.8-1.7-1c-0.7-0.2-1.6-0.3-2.6-0.3c-1.4,0-2.6,0.2-3.7,0.5c-1.1,0.3-2,0.6-2.8,1c-0.8,0.4-1.5,0.7-2.1,1
			c-0.6,0.3-1,0.5-1.3,0.5c-0.2,0-0.5-0.1-0.6-0.2c-0.2-0.2-0.3-0.4-0.5-0.7c-0.1-0.3-0.2-0.6-0.3-1.1c-0.1-0.4-0.1-0.9-0.1-1.4
			c0-0.7,0.1-1.2,0.2-1.6c0.1-0.4,0.3-0.8,0.6-1.1c0.3-0.3,0.8-0.7,1.6-1.1c0.8-0.4,1.6-0.7,2.7-1.1c1-0.3,2.1-0.6,3.3-0.8
			c1.2-0.2,2.4-0.3,3.7-0.3c2.3,0,4.2,0.2,5.8,0.7c1.6,0.4,2.9,1.1,4,2.1c1,0.9,1.8,2.1,2.3,3.6c0.5,1.5,0.7,3.2,0.7,5.2V62.5z
			 M217.7,49.9h-3.1c-1.3,0-2.4,0.1-3.4,0.3c-0.9,0.2-1.7,0.5-2.3,0.9c-0.6,0.4-1,0.9-1.3,1.4c-0.3,0.6-0.4,1.2-0.4,1.9
			c0,1.2,0.4,2.2,1.2,2.9c0.8,0.7,1.8,1,3.2,1c1.1,0,2.2-0.3,3.2-0.9c1-0.6,1.9-1.5,2.9-2.6V49.9z"/>
		<path fill="#0083C5" d="M254.3,54.1c0,1.7-0.3,3.1-0.9,4.4c-0.6,1.3-1.5,2.3-2.6,3.2c-1.1,0.9-2.5,1.5-4,1.9
			c-1.5,0.4-3.2,0.6-5,0.6c-1.1,0-2.1-0.1-3.1-0.2c-1-0.2-1.9-0.4-2.6-0.6c-0.8-0.3-1.4-0.5-1.9-0.8c-0.5-0.3-0.9-0.5-1.1-0.7
			c-0.2-0.2-0.4-0.6-0.6-1.1c-0.1-0.5-0.2-1.2-0.2-2.2c0-0.6,0-1.1,0.1-1.5c0-0.4,0.1-0.7,0.2-0.9c0.1-0.2,0.2-0.4,0.3-0.5
			c0.1-0.1,0.3-0.1,0.5-0.1c0.2,0,0.6,0.1,1.1,0.4c0.5,0.3,1,0.6,1.7,0.9c0.7,0.3,1.5,0.6,2.4,0.9c0.9,0.3,2,0.4,3.1,0.4
			c0.7,0,1.4-0.1,2-0.2c0.6-0.2,1.1-0.4,1.5-0.7c0.4-0.3,0.7-0.6,1-1.1c0.2-0.4,0.3-0.9,0.3-1.5c0-0.7-0.2-1.2-0.6-1.7
			c-0.4-0.5-0.9-0.9-1.6-1.2c-0.7-0.3-1.4-0.7-2.2-1c-0.8-0.3-1.7-0.6-2.6-1c-0.9-0.4-1.7-0.8-2.6-1.3c-0.8-0.5-1.6-1.1-2.2-1.8
			s-1.2-1.5-1.6-2.5c-0.4-1-0.6-2.2-0.6-3.5c0-1.4,0.3-2.7,0.8-3.9c0.5-1.2,1.3-2.2,2.3-3c1-0.8,2.3-1.5,3.7-1.9
			c1.5-0.5,3.1-0.7,4.9-0.7c0.9,0,1.8,0.1,2.6,0.2c0.9,0.1,1.6,0.3,2.3,0.5c0.7,0.2,1.3,0.4,1.8,0.6c0.5,0.2,0.8,0.4,1,0.6
			c0.2,0.2,0.4,0.3,0.4,0.5c0.1,0.2,0.2,0.4,0.2,0.6c0,0.2,0.1,0.5,0.1,0.9c0,0.3,0.1,0.8,0.1,1.3c0,0.6,0,1.1-0.1,1.4
			c0,0.4-0.1,0.7-0.2,0.9c-0.1,0.2-0.2,0.4-0.3,0.4c-0.1,0.1-0.3,0.1-0.5,0.1c-0.2,0-0.5-0.1-0.9-0.3c-0.4-0.2-0.9-0.5-1.5-0.7
			c-0.6-0.3-1.3-0.5-2.1-0.7c-0.8-0.2-1.7-0.3-2.8-0.3c-0.7,0-1.4,0.1-1.9,0.2c-0.5,0.2-1,0.4-1.3,0.7c-0.3,0.3-0.6,0.6-0.8,1
			c-0.2,0.4-0.3,0.8-0.3,1.2c0,0.7,0.2,1.2,0.6,1.7c0.4,0.5,1,0.9,1.6,1.2c0.7,0.4,1.4,0.7,2.3,1c0.9,0.3,1.7,0.6,2.6,1
			c0.9,0.4,1.7,0.8,2.6,1.3c0.9,0.5,1.6,1.1,2.3,1.8c0.7,0.7,1.2,1.5,1.6,2.5C254.1,51.6,254.3,52.8,254.3,54.1z"/>
		<path fill="#0083C5" d="M288.1,62.4c0,0.2-0.1,0.4-0.2,0.6c-0.1,0.2-0.3,0.3-0.7,0.4c-0.3,0.1-0.7,0.2-1.3,0.2
			c-0.5,0.1-1.2,0.1-2,0.1c-0.8,0-1.5,0-2-0.1c-0.5-0.1-0.9-0.1-1.3-0.2c-0.3-0.1-0.5-0.2-0.6-0.4c-0.1-0.2-0.2-0.4-0.2-0.6V45.7
			c0-1.4-0.1-2.5-0.3-3.4c-0.2-0.8-0.5-1.5-0.9-2.1c-0.4-0.6-0.9-1-1.5-1.3c-0.6-0.3-1.3-0.5-2.2-0.5c-1,0-2.1,0.4-3.2,1.1
			c-1.1,0.8-2.2,1.9-3.3,3.3v19.5c0,0.2-0.1,0.4-0.2,0.6c-0.1,0.2-0.4,0.3-0.7,0.4c-0.3,0.1-0.7,0.2-1.3,0.2c-0.5,0.1-1.2,0.1-2,0.1
			c-0.8,0-1.5,0-2-0.1c-0.5-0.1-0.9-0.1-1.2-0.2c-0.3-0.1-0.5-0.2-0.7-0.4c-0.1-0.2-0.2-0.4-0.2-0.6V22.4c0-0.2,0.1-0.4,0.2-0.6
			c0.1-0.2,0.4-0.3,0.7-0.4c0.3-0.1,0.7-0.2,1.2-0.3c0.5-0.1,1.2-0.1,2-0.1c0.8,0,1.5,0,2,0.1c0.5,0.1,0.9,0.2,1.3,0.3
			c0.3,0.1,0.5,0.3,0.7,0.4c0.1,0.2,0.2,0.4,0.2,0.6v13c1.4-1.4,2.8-2.4,4.3-3.1c1.5-0.7,3-1,4.6-1c2,0,3.6,0.3,5,1
			c1.4,0.7,2.4,1.6,3.3,2.7c0.8,1.1,1.4,2.5,1.8,4c0.4,1.5,0.6,3.4,0.6,5.5V62.4z"/>
		<path fill="#0083C5" d="M323.8,62.4c0,0.2-0.1,0.4-0.2,0.6c-0.1,0.2-0.3,0.3-0.7,0.4c-0.3,0.1-0.7,0.2-1.3,0.2
			c-0.5,0.1-1.2,0.1-2,0.1c-0.8,0-1.5,0-2-0.1c-0.5-0.1-0.9-0.1-1.3-0.2c-0.3-0.1-0.5-0.2-0.6-0.4c-0.1-0.2-0.2-0.4-0.2-0.6V45.7
			c0-1.4-0.1-2.5-0.3-3.4c-0.2-0.8-0.5-1.5-0.9-2.1c-0.4-0.6-0.9-1-1.5-1.3c-0.6-0.3-1.3-0.5-2.2-0.5c-1,0-2.1,0.4-3.2,1.1
			c-1.1,0.8-2.2,1.9-3.3,3.3v19.5c0,0.2-0.1,0.4-0.2,0.6c-0.1,0.2-0.4,0.3-0.7,0.4c-0.3,0.1-0.7,0.2-1.2,0.2c-0.5,0.1-1.2,0.1-2,0.1
			c-0.8,0-1.5,0-2-0.1c-0.5-0.1-0.9-0.1-1.2-0.2c-0.3-0.1-0.5-0.2-0.7-0.4c-0.1-0.2-0.2-0.4-0.2-0.6V33.1c0-0.2,0.1-0.4,0.2-0.6
			c0.1-0.2,0.3-0.3,0.6-0.4c0.3-0.1,0.6-0.2,1.1-0.2c0.4-0.1,1-0.1,1.7-0.1c0.7,0,1.3,0,1.7,0.1c0.5,0.1,0.8,0.1,1.1,0.2
			c0.2,0.1,0.4,0.2,0.5,0.4c0.1,0.2,0.2,0.4,0.2,0.6v3.4c1.6-1.8,3.2-3.1,4.9-3.9c1.7-0.9,3.4-1.3,5.2-1.3c2,0,3.6,0.3,5,1
			c1.4,0.7,2.4,1.6,3.3,2.7c0.8,1.1,1.4,2.4,1.8,4c0.4,1.5,0.6,3.3,0.6,5.5V62.4z"/>
		<path fill="#0083C5" d="M358.6,46.9c0,1-0.2,1.8-0.7,2.2c-0.4,0.5-1.1,0.7-1.8,0.7h-17.6c0,1.2,0.1,2.4,0.4,3.4
			c0.3,1,0.8,1.9,1.4,2.6c0.6,0.7,1.5,1.3,2.5,1.6c1,0.4,2.2,0.6,3.6,0.6c1.4,0,2.7-0.1,3.8-0.3c1.1-0.2,2-0.4,2.8-0.7
			c0.8-0.2,1.4-0.5,2-0.7c0.5-0.2,0.9-0.3,1.3-0.3c0.2,0,0.4,0,0.5,0.1c0.1,0.1,0.2,0.2,0.3,0.4c0.1,0.2,0.1,0.5,0.2,0.8
			c0,0.4,0,0.8,0,1.4c0,0.5,0,0.9,0,1.2c0,0.3-0.1,0.6-0.1,0.9c0,0.2-0.1,0.4-0.2,0.6c-0.1,0.2-0.2,0.3-0.3,0.5
			c-0.1,0.2-0.5,0.4-1.2,0.6c-0.6,0.3-1.4,0.5-2.4,0.8c-1,0.2-2.1,0.5-3.3,0.7c-1.3,0.2-2.6,0.3-4,0.3c-2.6,0-4.8-0.3-6.8-1
			c-1.9-0.7-3.6-1.7-4.9-3c-1.3-1.3-2.3-3-2.9-5.1c-0.6-2-1-4.4-1-7.2c0-2.6,0.3-5,1-7c0.7-2.1,1.6-3.9,2.9-5.3
			c1.3-1.5,2.8-2.6,4.7-3.3c1.8-0.8,3.9-1.1,6.2-1.1c2.4,0,4.5,0.4,6.2,1.1c1.7,0.7,3.1,1.7,4.2,3c1.1,1.3,1.9,2.8,2.4,4.5
			c0.5,1.8,0.8,3.7,0.8,5.7V46.9z M350.7,44.5c0.1-2.3-0.4-4.1-1.4-5.5c-1-1.3-2.5-2-4.6-2c-1,0-1.9,0.2-2.7,0.6
			c-0.8,0.4-1.4,0.9-1.9,1.6c-0.5,0.7-0.9,1.5-1.2,2.4c-0.3,0.9-0.4,1.9-0.5,2.9H350.7z"/>
		<path fill="#0083C5" d="M382,59.5c0,1-0.1,1.7-0.2,2.2c-0.1,0.5-0.3,0.9-0.5,1.1c-0.2,0.2-0.5,0.4-0.9,0.6
			c-0.4,0.2-0.8,0.3-1.3,0.4c-0.5,0.1-1.1,0.2-1.7,0.3c-0.6,0.1-1.2,0.1-1.8,0.1c-1.6,0-3-0.2-4.2-0.6c-1.2-0.4-2.2-1.1-3-1.9
			c-0.8-0.9-1.4-2-1.7-3.3c-0.4-1.3-0.6-2.9-0.6-4.7v-15h-3.5c-0.4,0-0.7-0.3-0.9-0.8c-0.2-0.5-0.3-1.4-0.3-2.6c0-0.6,0-1.2,0.1-1.6
			c0.1-0.4,0.1-0.8,0.2-1c0.1-0.3,0.2-0.4,0.4-0.5c0.2-0.1,0.4-0.2,0.6-0.2h3.4v-9.5c0-0.2,0.1-0.4,0.2-0.6c0.1-0.2,0.3-0.3,0.7-0.4
			c0.3-0.1,0.7-0.2,1.3-0.3c0.5-0.1,1.2-0.1,2-0.1c0.8,0,1.5,0,2,0.1c0.5,0.1,0.9,0.1,1.3,0.3c0.3,0.1,0.5,0.3,0.7,0.4
			c0.1,0.2,0.2,0.4,0.2,0.6V32h6.3c0.2,0,0.4,0.1,0.6,0.2c0.2,0.1,0.3,0.3,0.4,0.5c0.1,0.3,0.2,0.6,0.2,1c0.1,0.4,0.1,1,0.1,1.6
			c0,1.2-0.1,2.1-0.3,2.6c-0.2,0.5-0.5,0.8-0.9,0.8h-6.3v13.8c0,1.6,0.2,2.8,0.7,3.6c0.5,0.8,1.4,1.2,2.7,1.2c0.4,0,0.8,0,1.2-0.1
			c0.3-0.1,0.7-0.2,0.9-0.3c0.3-0.1,0.5-0.2,0.7-0.3c0.2-0.1,0.4-0.1,0.5-0.1c0.1,0,0.3,0,0.4,0.1c0.1,0.1,0.2,0.2,0.3,0.5
			c0.1,0.2,0.1,0.5,0.2,0.9C382,58.4,382,58.9,382,59.5z"/>
	</g>
</g>
</svg>
